<?xml version="1.0" standalone="no"?>
<!DOCTYPE svg PUBLIC "-//W3C//DTD SVG 20010904//EN"
 "http://www.w3.org/TR/2001/REC-SVG-20010904/DTD/svg10.dtd">
<svg version="1.0" xmlns="http://www.w3.org/2000/svg"
 width="79.000000pt" height="80.000000pt" viewBox="0 0 79.000000 80.000000"
 preserveAspectRatio="xMidYMid meet">
<metadata>
Created by potrace 1.10, written by Peter Selinger 2001-2011
</metadata>
<g transform="translate(0.000000,80.000000) scale(0.100000,-0.100000)"
fill="#ccc" stroke="none">
<path d="M178 791 c-58 -12 -114 -57 -143 -114 -21 -43 -25 -65 -25 -137 0
-118 24 -165 137 -268 102 -92 143 -156 143 -224 0 -36 4 -48 15 -48 25 0 23
94 -2 145 -9 16 -66 82 -128 145 -122 126 -139 157 -139 250 2 191 180 291
323 181 l23 -18 -22 -43 c-30 -60 -36 -140 -16 -220 19 -73 20 -74 39 -67 13
5 12 13 0 59 -21 78 -13 188 18 232 36 52 74 71 146 70 123 -1 203 -74 203
-186 0 -45 14 -69 30 -52 4 5 4 39 0 77 -14 124 -83 185 -219 194 -56 4 -73 1
-113 -20 -47 -24 -48 -24 -65 -5 -39 43 -129 64 -205 49z"/>
</g>
</svg>
